<svg width="205" height="73" viewBox="0 0 205 73" fill="none" xmlns="http://www.w3.org/2000/svg">
<path d="M96.1679 23.6969C96.203 25.2391 95.9299 26.7726 95.3647 28.2068C94.8656 29.4345 94.0867 30.5272 93.0906 31.397C92.056 32.2772 90.8462 32.9249 89.5423 33.2969C88.0497 33.7231 86.5037 33.9306 84.9521 33.9129C84.1478 33.9129 83.2414 33.8794 82.2328 33.8124C81.2557 33.7517 80.2849 33.613 79.3297 33.3974V14.0354C80.2919 13.8185 81.2706 13.6841 82.2554 13.6333C83.2833 13.575 84.1984 13.5458 85.0005 13.5458C86.5375 13.53 88.0693 13.7286 89.552 14.1359C90.8466 14.4892 92.051 15.1172 93.0841 15.9774C94.0851 16.8285 94.8674 17.9094 95.3647 19.1288C95.9338 20.5821 96.2069 22.1355 96.1679 23.6969ZM82.9425 30.687C83.1522 30.7064 83.4264 30.7194 83.7715 30.7291C84.1167 30.7389 84.5812 30.7291 85.1747 30.7291C87.594 30.7291 89.4004 30.1099 90.5939 28.8714C91.7874 27.6329 92.3841 25.9038 92.3841 23.684C92.3841 21.4253 91.8024 19.6907 90.639 18.4803C89.4756 17.2699 87.6725 16.6658 85.2295 16.668C84.4662 16.6547 83.7026 16.6839 82.9425 16.7555V30.687Z" fill="white"/>
<path d="M103.606 18.2628C104.592 18.2353 105.574 18.3812 106.509 18.694C107.223 18.9378 107.866 19.3529 108.384 19.9033C108.861 20.4424 109.204 21.0881 109.384 21.787C109.591 22.5794 109.692 23.3961 109.684 24.2154V33.3323C109.15 33.4447 108.345 33.583 107.268 33.7473C106.059 33.9212 104.84 34.0035 103.619 33.9937C102.792 34.0005 101.966 33.9135 101.158 33.7343C100.474 33.589 99.8266 33.3055 99.2549 32.9011C98.7263 32.5151 98.3035 32.0009 98.0259 31.4064C97.7095 30.6933 97.5573 29.9175 97.5808 29.1369C97.5503 28.378 97.7159 27.624 98.0614 26.9485C98.3895 26.3592 98.857 25.8604 99.4226 25.496C100.03 25.107 100.704 24.8333 101.41 24.6887C102.581 24.4391 103.784 24.3811 104.974 24.5169C105.426 24.5708 105.874 24.6531 106.316 24.7633V24.1862C106.319 23.798 106.271 23.411 106.174 23.0352C106.084 22.6767 105.913 22.3439 105.674 22.0626C105.417 21.7719 105.092 21.5493 104.729 21.4142C104.256 21.2459 103.756 21.1679 103.255 21.184C102.517 21.1778 101.78 21.2353 101.052 21.3558C100.498 21.4418 99.9529 21.5763 99.4226 21.7578L98.9936 18.9404C99.6225 18.7404 100.265 18.5865 100.916 18.48C101.805 18.3272 102.705 18.2545 103.606 18.2628ZM103.89 31.2314C104.705 31.2525 105.519 31.1949 106.322 31.0595V27.2079C106.05 27.1319 105.773 27.0734 105.493 27.0328C105.096 26.9745 104.695 26.9464 104.293 26.9485C103.905 26.9495 103.517 26.9777 103.132 27.0328C102.765 27.0867 102.409 27.196 102.074 27.357C101.77 27.503 101.508 27.7266 101.316 28.0054C101.117 28.3182 101.018 28.6848 101.032 29.0559C101.032 29.8826 101.287 30.45 101.803 30.7677C102.444 31.1113 103.165 31.2716 103.89 31.2314Z" fill="white"/>
<path d="M112.271 14.6674L115.735 14.0935V18.6325H121.057V21.5504H115.735V27.6651C115.735 28.8755 115.925 29.7401 116.306 30.2588C116.687 30.7775 117.332 31.0358 118.241 31.0337C118.806 31.0427 119.369 30.9751 119.916 30.8327C120.308 30.7296 120.695 30.6052 121.074 30.4598L121.648 33.2189C121.135 33.4311 120.609 33.6087 120.074 33.7506C119.326 33.9472 118.556 34.0399 117.783 34.0262C116.873 34.0516 115.966 33.9053 115.109 33.595C114.439 33.3401 113.851 32.9076 113.406 32.3435C112.97 31.7553 112.667 31.078 112.519 30.3593C112.338 29.484 112.251 28.5915 112.261 27.6975L112.271 14.6674Z" fill="white"/>
<path d="M129.144 18.2627C130.13 18.2355 131.112 18.3814 132.047 18.6939C132.761 18.9377 133.404 19.3529 133.922 19.9033C134.399 20.4423 134.742 21.0881 134.922 21.7869C135.129 22.5794 135.229 23.396 135.222 24.2153V33.3322C134.686 33.4457 133.883 33.5851 132.805 33.7472C131.597 33.9209 130.378 34.0033 129.157 33.9936C128.33 34.0008 127.504 33.9137 126.696 33.7342C126.012 33.5889 125.364 33.3054 124.793 32.901C124.257 32.5175 123.827 32.0031 123.544 31.4064C123.228 30.6932 123.076 29.9174 123.099 29.1369C123.075 28.3773 123.248 27.6245 123.599 26.9517C123.927 26.3624 124.395 25.8635 124.961 25.4992C125.568 25.1096 126.241 24.8359 126.948 24.6919C128.113 24.4437 129.312 24.3857 130.496 24.5201C130.949 24.5743 131.398 24.6566 131.841 24.7665V24.1861C131.842 23.798 131.794 23.4113 131.699 23.0352C131.609 22.6767 131.438 22.3439 131.199 22.0625C130.942 21.7719 130.617 21.5492 130.254 21.4141C129.781 21.2461 129.281 21.168 128.78 21.1839C128.042 21.1778 127.305 21.2352 126.577 21.3557C126.028 21.4426 125.489 21.5772 124.964 21.7578L124.535 18.9403C125.16 18.7408 125.8 18.5869 126.448 18.48C127.338 18.3267 128.241 18.254 129.144 18.2627ZM129.428 31.2313C130.242 31.2523 131.057 31.1947 131.86 31.0595V27.2078C131.588 27.1318 131.311 27.0734 131.031 27.0327C130.634 26.9745 130.233 26.9463 129.831 26.9484C129.443 26.9493 129.055 26.9775 128.67 27.0327C128.303 27.0867 127.946 27.196 127.612 27.3569C127.307 27.503 127.046 27.7265 126.854 28.0054C126.654 28.3177 126.553 28.6844 126.567 29.0558C126.567 29.8826 126.825 30.4499 127.341 30.7677C127.981 31.1115 128.703 31.2719 129.428 31.2313Z" fill="white"/>
<path d="M150.015 13.7466V16.8817H143.676V33.676H140.289V16.8817H134.189V13.7466H150.015Z" fill="white"/>
<path d="M155.208 18.2628C156.193 18.2353 157.176 18.3812 158.111 18.694C158.824 18.9378 159.468 19.3529 159.985 19.9033C160.455 20.4447 160.79 21.0902 160.963 21.787C161.17 22.5794 161.271 23.3961 161.263 24.2154V33.3323C160.731 33.4447 159.926 33.583 158.847 33.7473C157.638 33.9212 156.419 34.0035 155.198 33.9937C154.371 34.0005 153.545 33.9135 152.737 33.7343C152.053 33.589 151.406 33.3055 150.834 32.9011C150.305 32.5151 149.883 32.0009 149.605 31.4064C149.288 30.6933 149.136 29.9175 149.16 29.1369C149.139 28.3751 149.316 27.621 149.673 26.9485C150.001 26.3592 150.468 25.8604 151.034 25.496C151.642 25.107 152.315 24.8333 153.021 24.6887C154.192 24.4391 155.396 24.3811 156.585 24.5169C157.037 24.5708 157.486 24.6531 157.927 24.7633V24.1862C157.93 23.798 157.882 23.411 157.785 23.0352C157.695 22.6767 157.524 22.3439 157.285 22.0626C157.028 21.7719 156.703 21.5493 156.34 21.4142C155.867 21.2459 155.367 21.1679 154.866 21.184C154.128 21.1778 153.391 21.2353 152.663 21.3558C152.109 21.4418 151.564 21.5763 151.034 21.7578L150.605 18.9404C151.231 18.7408 151.87 18.587 152.518 18.48C153.406 18.3272 154.307 18.2545 155.208 18.2628ZM155.495 31.2314C156.308 31.2523 157.122 31.1948 157.924 31.0595V27.2079C157.652 27.1319 157.375 27.0734 157.095 27.0328C156.698 26.9745 156.297 26.9464 155.895 26.9485C155.507 26.9495 155.118 26.9777 154.734 27.0328C154.367 27.0867 154.01 27.196 153.676 27.357C153.371 27.503 153.11 27.7266 152.918 28.0054C152.718 28.3182 152.619 28.6848 152.634 29.0559C152.634 29.8826 152.889 30.45 153.405 30.7677C154.046 31.1115 154.769 31.2719 155.495 31.2314Z" fill="white"/>
<path d="M169.498 33.9646C168.633 33.9687 167.771 33.8531 166.937 33.6209C166.335 33.4512 165.782 33.14 165.324 32.7131C164.917 32.3096 164.625 31.8035 164.479 31.2477C164.309 30.5948 164.228 29.922 164.237 29.2473V11.9375L167.695 11.3474V28.5859C167.688 28.943 167.721 29.2998 167.795 29.6493C167.853 29.92 167.976 30.1725 168.153 30.3853C168.342 30.5979 168.583 30.7567 168.853 30.8456C169.221 30.9651 169.6 31.0466 169.985 31.0888L169.498 33.9646Z" fill="white"/>
<path d="M175.827 24.504C176.257 24.0436 176.724 23.5497 177.23 23.0224C177.727 22.4939 178.198 21.9687 178.688 21.4402C179.178 20.9117 179.62 20.4059 180.049 19.9164C180.478 19.4268 180.843 19.0021 181.149 18.6195H185.239C184.287 19.7002 183.283 20.8123 182.23 21.9557C181.176 23.0991 180.115 24.2209 179.046 25.321C179.681 25.8631 180.283 26.4446 180.846 27.0621C181.472 27.7429 182.08 28.4659 182.672 29.231C183.263 29.9962 183.816 30.7635 184.33 31.533C184.797 32.2184 185.228 32.9283 185.62 33.6598H181.607C181.265 33.0654 180.87 32.4429 180.42 31.7923C179.971 31.1417 179.489 30.5084 178.975 29.8924C178.459 29.2797 177.936 28.6993 177.401 28.1547C176.913 27.648 176.387 27.1808 175.827 26.7573V33.6598H172.365V11.9375L175.827 11.3474V24.504Z" fill="white"/>
<path d="M191.946 31.1763C192.629 31.221 193.314 31.1102 193.949 30.8521C194.156 30.748 194.329 30.5842 194.443 30.3816C194.558 30.179 194.611 29.9467 194.594 29.7141C194.593 29.4684 194.531 29.2267 194.414 29.0111C194.297 28.7954 194.128 28.6125 193.923 28.4788C193.231 28.0316 192.485 27.6743 191.704 27.4154C191.114 27.2019 190.537 26.9562 189.975 26.6794C189.481 26.4435 189.023 26.139 188.613 25.7749C188.229 25.4259 187.923 24.9995 187.713 24.5234C187.481 23.9543 187.371 23.3422 187.391 22.7273C187.361 22.1012 187.481 21.4771 187.741 20.9073C188.001 20.3376 188.393 19.8387 188.884 19.4527C189.895 18.6595 191.268 18.2618 193.004 18.2596C193.849 18.2566 194.693 18.338 195.523 18.5028C196.135 18.6158 196.738 18.7751 197.326 18.9794L196.681 21.7968C196.21 21.5949 195.722 21.4365 195.223 21.3234C194.547 21.1688 193.855 21.0959 193.162 21.1062C192.569 21.0817 191.979 21.2053 191.446 21.4661C191.244 21.5683 191.075 21.727 190.961 21.9232C190.846 22.1193 190.791 22.3445 190.8 22.5716C190.799 22.7944 190.843 23.0151 190.929 23.2201C191.031 23.4329 191.184 23.6168 191.375 23.755C191.633 23.9465 191.911 24.1096 192.204 24.2413C192.614 24.4326 193.034 24.6014 193.462 24.7471C194.176 25.0061 194.874 25.3082 195.552 25.6517C196.072 25.9131 196.549 26.252 196.968 26.6567C197.332 27.0224 197.61 27.4656 197.781 27.9536C197.966 28.5091 198.053 29.0928 198.039 29.6784C198.039 31.1179 197.51 32.2062 196.452 32.9433C195.394 33.6803 193.886 34.0467 191.929 34.0423C190.862 34.0706 189.795 33.9616 188.755 33.7181C188.183 33.5708 187.619 33.3933 187.065 33.1864L187.668 30.2685C188.27 30.5083 188.886 30.7098 189.513 30.8715C190.308 31.0781 191.125 31.1806 191.946 31.1763Z" fill="white"/>
<path d="M204.51 31.7731C204.518 32.0755 204.462 32.3763 204.346 32.6556C204.231 32.935 204.058 33.1866 203.839 33.3942C203.395 33.8027 202.816 34.0293 202.215 34.0293C201.613 34.0293 201.034 33.8027 200.59 33.3942C200.377 33.1839 200.209 32.9311 200.098 32.652C199.987 32.3729 199.935 32.0735 199.945 31.7731C199.933 31.4676 199.985 31.1631 200.096 30.8785C200.207 30.5939 200.375 30.3355 200.59 30.1196C201.03 29.7033 201.611 29.4714 202.215 29.4714C202.818 29.4714 203.399 29.7033 203.839 30.1196C204.059 30.3327 204.233 30.59 204.349 30.8748C204.464 31.1596 204.519 31.4656 204.51 31.7731Z" fill="white"/>
<path d="M87.9101 60.6602C86.5442 60.6846 85.1858 60.4537 83.9038 59.9794C82.7603 59.5465 81.7323 58.8528 80.9007 57.953C80.0503 57.0096 79.4064 55.8974 79.0104 54.6882C78.5538 53.2578 78.3358 51.7614 78.3652 50.2595C78.3383 48.7481 78.5966 47.2453 79.1265 45.8307C79.5891 44.6116 80.2949 43.5005 81.2006 42.5659C82.0753 41.6768 83.1289 40.9859 84.2909 40.5395C85.5046 40.073 86.7945 39.8388 88.094 39.8489C88.8422 39.8438 89.5893 39.9068 90.3262 40.037C90.9156 40.1414 91.4984 40.2811 92.0713 40.4552C92.496 40.5791 92.9084 40.7419 93.3035 40.9415C93.6261 41.1166 93.8551 41.2398 93.9873 41.3176L92.9293 44.2777C92.3118 43.9184 91.6518 43.6385 90.9649 43.4445C90.0681 43.1813 89.1378 43.0514 88.2037 43.0587C87.3818 43.0522 86.5663 43.203 85.8005 43.5028C85.0615 43.7937 84.3992 44.2519 83.8651 44.8418C83.283 45.4903 82.8434 46.2548 82.5748 47.0854C82.2538 48.0974 82.0991 49.1553 82.1167 50.2173C82.1059 51.2017 82.2263 52.183 82.4748 53.1352C82.6894 53.9577 83.0643 54.7291 83.578 55.4047C84.0757 56.0516 84.7236 56.5659 85.465 56.9026C86.332 57.2778 87.2697 57.4592 88.2133 57.4343C89.2656 57.4642 90.3163 57.333 91.3294 57.0452C91.9684 56.8518 92.5908 56.6068 93.1906 56.3125L94.1583 59.2726C93.8665 59.4601 93.5549 59.6145 93.2293 59.733C92.7755 59.9078 92.3125 60.0571 91.8422 60.1804C91.2495 60.3353 90.6471 60.4501 90.0391 60.5241C89.3331 60.6152 88.6219 60.6607 87.9101 60.6602Z" fill="white"/>
<path d="M101.413 60.5178C100.548 60.5215 99.6875 60.4047 98.8549 60.1708C98.2541 60.0009 97.7015 59.691 97.2421 59.2663C96.8357 58.8626 96.5449 58.3564 96.4002 57.8008C96.2294 57.1482 96.1469 56.4753 96.155 55.8004V38.4874L99.6194 37.9136V55.139C99.6124 55.4962 99.646 55.853 99.7194 56.2025C99.7754 56.4731 99.8986 56.7252 100.077 56.9352C100.264 57.1455 100.504 57.3012 100.771 57.3858C101.138 57.5081 101.516 57.5907 101.9 57.6322L101.413 60.5178Z" fill="white"/>
<path d="M116.006 59.7686C115.337 59.9393 114.47 60.1166 113.403 60.3003C112.239 60.4894 111.062 60.5805 109.884 60.5726C108.853 60.6035 107.827 60.4282 106.864 60.0571C106.109 59.7489 105.443 59.2537 104.929 58.6176C104.419 57.9698 104.056 57.2172 103.868 56.413C103.648 55.4947 103.54 54.553 103.545 53.6085V45.179H107.006V53.0573C107.006 54.6676 107.24 55.8186 107.706 56.5102C108.173 57.2019 108.989 57.5466 110.155 57.5445C110.574 57.5445 111.016 57.525 111.484 57.4861C111.835 57.4665 112.185 57.4188 112.529 57.3435V45.1887H115.99L116.006 59.7686Z" fill="white"/>
<path d="M132.915 52.7237C132.931 53.8347 132.752 54.9398 132.386 55.9885C132.059 56.9146 131.542 57.7617 130.87 58.4752C130.2 59.1743 129.383 59.7148 128.48 60.0574C127.464 60.4349 126.388 60.6195 125.306 60.6021C124.208 60.6064 123.112 60.5207 122.028 60.3459C121.157 60.2082 120.295 60.0154 119.448 59.7688V38.4874L122.899 37.9136V45.6947C123.371 45.4558 123.865 45.2625 124.373 45.1176C125.946 44.6927 127.615 44.7986 129.122 45.4191C129.93 45.7787 130.641 46.3267 131.196 47.0175C131.774 47.7574 132.207 48.6014 132.47 49.5042C132.777 50.5492 132.927 51.6343 132.915 52.7237ZM129.367 52.6653C129.367 51.1891 129.077 50.0197 128.496 49.1573C127.915 48.2949 126.995 47.8626 125.735 47.8605C125.187 47.8573 124.642 47.9449 124.122 48.1198C123.69 48.255 123.279 48.4492 122.899 48.6969V57.3534C123.219 57.4234 123.542 57.4764 123.867 57.5123C124.337 57.5647 124.81 57.5885 125.283 57.5836C125.849 57.6136 126.414 57.5122 126.935 57.2873C127.456 57.0624 127.918 56.7201 128.286 56.2868C129.009 55.4071 129.369 54.1999 129.367 52.6653Z" fill="white"/>
<path d="M53.9273 70.6981C40.189 74.9128 15.8639 69.0057 5.96103 54.3382C-8.58689 32.7456 3.73207 3.24212 29.728 0.246381C44.8888 -1.50113 58.5787 6.12762 64.9172 20.8664C71.0138 35.0443 67.1752 50.305 55.1014 60.5761C53.0563 62.3171 50.5854 63.5556 48.1565 65.1151C48.7145 66.6746 51.6822 67.9909 53.9627 68.7949C54.1643 68.8611 54.3394 68.9906 54.4622 69.1642C54.5851 69.3379 54.6493 69.5466 54.6453 69.7597C54.6413 69.9727 54.5694 70.1789 54.4402 70.3478C54.3109 70.5167 54.1311 70.6395 53.9273 70.6981ZM25.483 31.8378C25.0341 30.718 24.3172 29.7269 23.396 28.9523C22.4418 28.177 21.3346 27.6145 20.1477 27.302C18.7733 26.9374 17.3563 26.7607 15.9349 26.7768C15.2038 26.7768 14.3296 26.8071 13.3124 26.8676C12.3275 26.9304 11.3473 27.0528 10.377 27.2339V44.936C11.3239 45.131 12.2832 45.2589 13.2479 45.3186C14.2221 45.3661 15.0747 45.3899 15.8059 45.3899C17.2701 45.4088 18.7293 45.2145 20.138 44.8128C21.3392 44.4757 22.4553 43.8855 23.4121 43.0815C24.3254 42.2893 25.0366 41.2887 25.4862 40.1636C25.9997 38.8535 26.2486 37.4538 26.2185 36.0461C26.2512 34.6083 26.0012 33.1783 25.483 31.8378ZM14.4479 30.3432C14.7251 30.3073 15.0039 30.2856 15.2833 30.2783C15.5769 30.2783 15.8639 30.2783 16.1414 30.2783C18.1779 30.2783 19.666 30.7679 20.6057 31.747C21.5455 32.7261 22.0143 34.1678 22.0121 36.072C22.0121 37.8898 21.5208 39.3152 20.538 40.3484C19.5552 41.3816 18.0499 41.8971 16.022 41.8949C15.6736 41.8949 15.3769 41.8949 15.122 41.8949C14.8672 41.8949 14.6479 41.8722 14.4575 41.856L14.4479 30.3432ZM26.5539 26.9875V30.4761H32.0086V45.163H36.0762V30.4761H41.5309V26.9875H26.5539ZM54.5143 45.1079C55.3621 44.9066 56.1783 44.5891 56.9401 44.1644L55.8175 40.8866L55.0595 41.2108C54.7463 41.3453 54.4226 41.4537 54.0918 41.535C53.6793 41.6406 53.2615 41.7239 52.8402 41.7847C52.3123 41.8588 51.7797 41.8935 51.2467 41.8884C50.4233 41.9111 49.6048 41.7552 48.8468 41.4313C48.2165 41.1526 47.663 40.7243 47.2339 40.183C46.8087 39.6291 46.5062 38.9902 46.3469 38.3091C46.1585 37.5412 46.0664 36.7526 46.0727 35.9618C46.0504 35.0523 46.1913 34.1462 46.4888 33.287C46.7278 32.616 47.1061 32.0038 47.5984 31.4909C48.0442 31.0362 48.5885 30.6912 49.1887 30.4826C49.78 30.2707 50.4028 30.1611 51.0306 30.1584C51.8801 30.1494 52.7268 30.2585 53.5466 30.4826C54.2169 30.6651 54.8658 30.9195 55.4821 31.2412L56.6562 27.9375C56.5175 27.85 56.2917 27.7268 55.9788 27.5711C55.6098 27.3953 55.2281 27.2479 54.8369 27.1302C54.2972 26.9651 53.7478 26.834 53.1918 26.7379C52.5026 26.6186 51.8041 26.5611 51.1048 26.5661C49.8484 26.5542 48.5999 26.7671 47.4178 27.195C46.3297 27.5968 45.3399 28.2281 44.5147 29.0463C43.6696 29.8965 43.0104 30.9147 42.5792 32.0356C42.0897 33.3189 41.8499 34.6848 41.8728 36.059C41.8728 39.085 42.6427 41.4194 44.1824 43.0621C45.7221 44.7048 47.9619 45.5261 50.9016 45.5261C52.1187 45.5428 53.3329 45.4022 54.5143 45.1079Z" fill="white"/>
</svg>
