<svg width="47" height="37" viewBox="0 0 47 37" fill="none" xmlns="http://www.w3.org/2000/svg">
<g clip-path="url(#clip0_85_505)">
<path d="M7.74418 15.925C10.2433 15.925 12.2751 13.8932 12.2751 11.3941C12.2751 8.89495 10.2433 6.86311 7.74418 6.86311C5.24508 6.86311 3.21323 8.89495 3.21323 11.3941C3.21323 13.8932 5.24508 15.925 7.74418 15.925ZM39.4608 15.925C41.96 15.925 43.9918 13.8932 43.9918 11.3941C43.9918 8.89495 41.96 6.86311 39.4608 6.86311C36.9617 6.86311 34.9299 8.89495 34.9299 11.3941C34.9299 13.8932 36.9617 15.925 39.4608 15.925ZM41.7263 18.1905H37.1954C35.9494 18.1905 34.8237 18.6931 34.0025 19.5073C36.8556 21.0719 38.8803 23.8967 39.3193 27.2524H43.9918C45.2449 27.2524 46.2573 26.24 46.2573 24.9869V22.7214C46.2573 20.2223 44.2254 18.1905 41.7263 18.1905ZM23.6025 18.1905C27.9848 18.1905 31.5317 14.6436 31.5317 10.2613C31.5317 5.87904 27.9848 2.33215 23.6025 2.33215C19.2202 2.33215 15.6733 5.87904 15.6733 10.2613C15.6733 14.6436 19.2202 18.1905 23.6025 18.1905ZM29.0397 20.456H28.4521C26.9795 21.1639 25.3441 21.5887 23.6025 21.5887C21.8609 21.5887 20.2326 21.1639 18.753 20.456H18.1654C13.6627 20.456 10.0097 24.109 10.0097 28.6117V30.6506C10.0097 32.5267 11.5318 34.0488 13.4079 34.0488H33.7972C35.6733 34.0488 37.1954 32.5267 37.1954 30.6506V28.6117C37.1954 24.109 33.5423 20.456 29.0397 20.456ZM13.2026 19.5073C12.3813 18.6931 11.2557 18.1905 10.0097 18.1905H5.47871C2.9796 18.1905 0.947754 20.2223 0.947754 22.7214V24.9869C0.947754 26.24 1.96014 27.2524 3.21323 27.2524H7.8787C8.32471 23.8967 10.3495 21.0719 13.2026 19.5073Z" fill="white"/>
</g>
<defs>
<clipPath id="clip0_85_505">
<rect width="45.3095" height="36.2476" fill="white" transform="translate(0.947754 0.0666504)"/>
</clipPath>
</defs>
</svg>
