<svg width="40" height="40" viewBox="0 0 40 40" fill="none" xmlns="http://www.w3.org/2000/svg">
<g clip-path="url(#clip0_85_466)">
<path d="M10.3049 0.419067C9.52486 0.419067 8.89258 1.05135 8.89258 1.83134V4.6558H11.717V1.83134C11.717 1.05135 11.0848 0.419067 10.3049 0.419067Z" fill="white"/>
<path d="M30.0758 0.419067C29.2959 0.419067 28.6636 1.05135 28.6636 1.83134V4.6558H31.488V1.83134C31.4881 1.05135 30.8558 0.419067 30.0758 0.419067Z" fill="white"/>
<path d="M35.7246 4.65576H31.4879V10.3048C31.4879 11.0848 30.8556 11.717 30.0756 11.717C29.2956 11.717 28.6633 11.0848 28.6633 10.3048V4.65576H11.7164V10.3048C11.7164 11.0848 11.0841 11.717 10.3041 11.717C9.52412 11.717 8.89184 11.0848 8.89184 10.3048V4.65576H4.65519C2.3153 4.65576 0.418457 6.55261 0.418457 8.89249V35.7252C0.418457 38.065 2.3153 39.9619 4.65519 39.9619H35.7246C38.0645 39.9619 39.9613 38.065 39.9613 35.7252V8.89249C39.9613 6.55261 38.0645 4.65576 35.7246 4.65576ZM37.1368 35.7252C37.1368 36.5051 36.5045 37.1374 35.7245 37.1374H4.65519C3.8752 37.1374 3.24292 36.5051 3.24292 35.7252V17.366H37.1368V35.7252Z" fill="white"/>
<path d="M11.7167 20.1904H8.89225C8.11226 20.1904 7.47998 20.8227 7.47998 21.6027C7.47998 22.3827 8.11226 23.015 8.89225 23.015H11.7167C12.4967 23.015 13.129 22.3827 13.129 21.6027C13.129 20.8227 12.4967 20.1904 11.7167 20.1904Z" fill="white"/>
<path d="M21.6025 20.1904H18.778C17.998 20.1904 17.3657 20.8227 17.3657 21.6027C17.3657 22.3827 17.998 23.015 18.778 23.015H21.6025C22.3824 23.015 23.0147 22.3827 23.0147 21.6027C23.0147 20.8227 22.3824 20.1904 21.6025 20.1904Z" fill="white"/>
<path d="M31.4882 20.1904H28.6637C27.8837 20.1904 27.2515 20.8227 27.2515 21.6027C27.2515 22.3827 27.8837 23.015 28.6637 23.015H31.4882C32.2682 23.015 32.9005 22.3827 32.9005 21.6027C32.9005 20.8227 32.2681 20.1904 31.4882 20.1904Z" fill="white"/>
<path d="M11.7167 25.8395H8.89225C8.11226 25.8395 7.47998 26.4718 7.47998 27.2518C7.47998 28.0317 8.11226 28.664 8.89225 28.664H11.7167C12.4967 28.664 13.129 28.0317 13.129 27.2518C13.129 26.4718 12.4967 25.8395 11.7167 25.8395Z" fill="white"/>
<path d="M21.6025 25.8395H18.778C17.998 25.8395 17.3657 26.4718 17.3657 27.2518C17.3657 28.0317 17.998 28.664 18.778 28.664H21.6025C22.3824 28.664 23.0147 28.0317 23.0147 27.2518C23.0147 26.4718 22.3824 25.8395 21.6025 25.8395Z" fill="white"/>
<path d="M31.4882 25.8395H28.6637C27.8837 25.8395 27.2515 26.4718 27.2515 27.2518C27.2515 28.0317 27.8837 28.664 28.6637 28.664H31.4882C32.2682 28.664 32.9005 28.0317 32.9005 27.2518C32.9004 26.4718 32.2681 25.8395 31.4882 25.8395Z" fill="white"/>
<path d="M11.7167 31.4884H8.89225C8.11226 31.4884 7.47998 32.1207 7.47998 32.9007C7.47998 33.6807 8.11226 34.3129 8.89225 34.3129H11.7167C12.4967 34.3129 13.129 33.6806 13.129 32.9006C13.129 32.1206 12.4967 31.4884 11.7167 31.4884Z" fill="white"/>
<path d="M21.6025 31.4884H18.778C17.998 31.4884 17.3657 32.1207 17.3657 32.9007C17.3657 33.6807 17.998 34.3129 18.778 34.3129H21.6025C22.3824 34.3129 23.0147 33.6807 23.0147 32.9007C23.0147 32.1207 22.3824 31.4884 21.6025 31.4884Z" fill="white"/>
<path d="M31.4882 31.4884H28.6637C27.8837 31.4884 27.2515 32.1207 27.2515 32.9007C27.2515 33.6807 27.8837 34.3129 28.6637 34.3129H31.4882C32.2682 34.3129 32.9005 33.6807 32.9005 32.9007C32.9005 32.1207 32.2681 31.4884 31.4882 31.4884Z" fill="white"/>
</g>
<defs>
<clipPath id="clip0_85_466">
<rect width="39.5429" height="39.5429" fill="white" transform="translate(0.418945 0.419067)"/>
</clipPath>
</defs>
</svg>
