<svg width="28" height="39" viewBox="0 0 28 39" fill="none" xmlns="http://www.w3.org/2000/svg">
<g clip-path="url(#clip0_41_81)">
<path d="M20.399 19.1905H6.80619V23.9274H20.399V19.1905ZM26.6999 8.0144L19.769 0.761019C19.4504 0.427955 19.0185 0.24292 18.5654 0.24292H18.1336V9.71673H27.1955V9.26524C27.1955 8.79895 27.0185 8.34747 26.6999 8.0144ZM15.8681 10.3088V0.24292H1.70887C0.767284 0.24292 0.00976562 1.03487 0.00976562 2.01926V36.3618C0.00976562 37.3462 0.767284 38.1382 1.70887 38.1382H25.4964C26.438 38.1382 27.1955 37.3462 27.1955 36.3618V12.0852H17.5672C16.6327 12.0852 15.8681 11.2858 15.8681 10.3088ZM4.54072 5.57194C4.54072 5.2448 4.79417 4.97983 5.10709 4.97983H10.7708C11.0837 4.97983 11.3371 5.2448 11.3371 5.57194V6.75616C11.3371 7.08331 11.0837 7.34828 10.7708 7.34828H5.10709C4.79417 7.34828 4.54072 7.08331 4.54072 6.75616V5.57194ZM4.54072 10.3088C4.54072 9.9817 4.79417 9.71673 5.10709 9.71673H10.7708C11.0837 9.71673 11.3371 9.9817 11.3371 10.3088V11.4931C11.3371 11.8202 11.0837 12.0852 10.7708 12.0852H5.10709C4.79417 12.0852 4.54072 11.8202 4.54072 11.4931V10.3088ZM22.6645 32.8091C22.6645 33.1363 22.4111 33.4013 22.0982 33.4013H16.4345C16.1215 33.4013 15.8681 33.1363 15.8681 32.8091V31.6249C15.8681 31.2978 16.1215 31.0328 16.4345 31.0328H22.0982C22.4111 31.0328 22.6645 31.2978 22.6645 31.6249V32.8091ZM22.6645 18.0063V25.1117C22.6645 25.766 22.1576 26.2959 21.5318 26.2959H5.67346C5.04762 26.2959 4.54072 25.766 4.54072 25.1117V18.0063C4.54072 17.352 5.04762 16.8221 5.67346 16.8221H21.5318C22.1576 16.8221 22.6645 17.352 22.6645 18.0063Z" fill="white"/>
</g>
<defs>
<clipPath id="clip0_41_81">
<rect width="27.1857" height="37.8952" fill="white" transform="translate(0.00976562 0.24292)"/>
</clipPath>
</defs>
</svg>
