<svg width="66" height="68" viewBox="0 0 66 68" fill="none" xmlns="http://www.w3.org/2000/svg">
<g clip-path="url(#clip0_67_451)">
<path d="M0.125987 11.7504C0.618788 10.1229 1.72759 9.61973 3.32919 9.62427C16.8988 9.66053 30.4728 9.62427 44.0468 9.62427C44.3064 9.62427 44.5616 9.62427 44.8212 9.62427C45.4405 9.63343 46.0324 9.88915 46.4729 10.3379C46.9133 10.7866 47.1681 11.3935 47.184 12.0315C47.2104 12.7795 47.184 13.532 47.184 14.2981C47.184 24.9651 47.1532 35.632 47.2148 46.2989C47.2148 48.6608 45.8948 49.5493 44.0336 49.5312C36.9936 49.4677 29.9888 49.5312 22.9664 49.4949C22.1728 49.4838 21.3917 49.6987 20.7092 50.116C16.2007 52.8148 11.6833 55.5001 7.15719 58.1717C6.94599 58.2987 6.71719 58.4165 6.40479 58.5888C6.38279 58.2397 6.35639 58.0085 6.35639 57.7728C6.35639 55.9187 6.35639 54.0645 6.35639 52.2104C6.35639 50.4605 5.41919 49.4904 3.71639 49.4904C3.58879 49.4904 3.45679 49.4904 3.32919 49.4904C1.73639 49.6309 0.618788 49.0099 0.117188 47.3869L0.125987 11.7504Z" fill="white"/>
<path d="M66.1272 46.3488C65.8865 46.2721 65.6512 46.1782 65.4232 46.0677C61.1068 43.5109 56.7992 40.9405 52.4784 38.3973C52.3064 38.3183 52.1636 38.1844 52.0709 38.0155C51.9783 37.8466 51.9406 37.6515 51.9636 37.4589C51.9636 32.2063 51.9636 26.9507 51.9636 21.692C51.9406 21.4994 51.9783 21.3043 52.0709 21.1354C52.1636 20.9665 52.3064 20.8327 52.4784 20.7536C56.8168 18.1968 61.142 15.6173 65.476 13.0469C65.6853 12.9461 65.9033 12.8656 66.1272 12.8067V46.3488Z" fill="white"/>
</g>
<defs>
<clipPath id="clip0_67_451">
<rect width="66" height="68" fill="white"/>
</clipPath>
</defs>
</svg>
