<svg width="54" height="54" viewBox="0 0 54 54" fill="none" xmlns="http://www.w3.org/2000/svg">
<path d="M27.1596 0C27.8796 0.1116 28.5744 0.1872 29.2692 0.36C31.3024 0.829306 33.1439 1.90801 34.5476 3.45194C35.9513 4.99586 36.8503 6.93145 37.1244 9C37.1826 9.45134 37.2138 9.90574 37.218 10.3608C37.218 15.8832 37.1748 21.4092 37.218 26.9208C37.2756 32.1156 33.222 36.3276 28.7652 37.0764C26.0783 37.5487 23.3136 36.9395 21.074 35.3817C18.8344 33.8239 17.3015 31.4438 16.8096 28.7604C16.7245 28.2609 16.6823 27.7551 16.6836 27.2484C16.6836 21.5508 16.6836 15.8508 16.6836 10.1484C16.7284 7.7734 17.5959 5.48751 19.138 3.68076C20.6802 1.87401 22.8015 0.658353 25.14 0.2412C25.6728 0.1548 26.22 0.0792 26.7384 0H27.1596Z" fill="white"/>
<path d="M26.8957 53.8452H16.9489C16.0237 53.8452 15.2533 53.5464 14.8069 52.6896C14.6578 52.3898 14.5875 52.0571 14.6025 51.7226C14.6175 51.3881 14.7174 51.063 14.8928 50.7778C15.0682 50.4926 15.3132 50.2568 15.6049 50.0924C15.8966 49.9281 16.2253 49.8407 16.5601 49.8384C19.1377 49.8384 21.7153 49.8384 24.2965 49.8384C24.9877 49.8384 24.9913 49.8384 24.9913 49.1184C24.9913 48.0384 24.9913 46.9584 24.9913 45.9072C24.9913 45.5472 24.8761 45.3636 24.4945 45.3168C19.7317 44.7264 15.8545 42.5124 12.7513 38.8908C10.3375 36.1681 8.8501 32.7496 8.5033 29.1276C8.3089 26.9676 8.3701 24.8076 8.3809 22.6656C8.3809 21.6612 9.3997 20.7756 10.3753 20.7864C10.9072 20.8137 11.4089 21.0418 11.7791 21.4247C12.1493 21.8076 12.3604 22.3167 12.3697 22.8492C12.3697 24.2892 12.3697 25.7292 12.3697 27.1692C12.4155 30.6433 13.699 33.9871 15.9893 36.5997C18.2797 39.2123 21.4268 40.9224 24.865 41.4225C28.3032 41.9227 31.807 41.1802 34.7468 39.3284C37.6866 37.4766 39.8695 34.6371 40.9033 31.32C41.3138 30.0166 41.5226 28.6581 41.5225 27.2916C41.5225 25.8708 41.5225 24.45 41.5225 23.0292C41.5225 21.798 42.4009 20.8224 43.5097 20.8008C44.6185 20.7792 45.5293 21.78 45.5329 23.04V26.8164C45.5329 32.3244 43.4737 36.936 39.4417 40.6728C36.6867 43.2615 33.1711 44.8937 29.4157 45.3276C29.3415 45.3253 29.2678 45.3396 29.1999 45.3695C29.132 45.3995 29.0717 45.4442 29.0234 45.5005C28.975 45.5568 28.9399 45.6231 28.9206 45.6948C28.9013 45.7664 28.8982 45.8415 28.9117 45.9144C28.9117 47.0376 28.9117 48.1572 28.9117 49.2804C28.9117 49.7304 29.0953 49.842 29.5129 49.842C32.0905 49.842 34.6681 49.842 37.2457 49.842C37.6785 49.8302 38.1036 49.9589 38.4572 50.2087C38.8109 50.4585 39.0742 50.8161 39.2077 51.228C39.3531 51.637 39.351 52.0839 39.2018 52.4915C39.0526 52.899 38.7656 53.2416 38.3905 53.46C37.9301 53.7043 37.4177 53.834 36.8965 53.838C33.5593 53.8632 30.2401 53.8452 26.8957 53.8452Z" fill="white"/>
</svg>
