<svg width="51" height="52" viewBox="0 0 51 52" fill="none" xmlns="http://www.w3.org/2000/svg">
<g clip-path="url(#clip0_67_434)">
<path d="M0.0976562 10.6441V10.2463C0.175856 9.74309 0.247256 9.22629 0.328856 8.73669C1.39646 2.09649 8.68266 -1.72171 14.7857 1.16489C16.9121 2.15977 18.6311 3.85661 19.6534 5.97C20.6757 8.08338 20.939 10.4844 20.3991 12.7691C20.341 12.9033 20.3246 13.0518 20.3519 13.1955C20.3792 13.3391 20.4489 13.4713 20.5521 13.5749C26.2187 19.2416 31.8718 24.9082 37.5113 30.5749C37.6022 30.6794 37.7229 30.7536 37.8572 30.7876C37.9915 30.8217 38.1329 30.8139 38.2627 30.7653C39.5168 30.4432 40.8212 30.3659 42.1047 30.5375C44.1981 30.8055 46.1568 31.7163 47.7109 33.1443C49.2649 34.5723 50.3377 36.4472 50.7815 38.5105C50.9175 39.1531 50.9991 39.8059 51.1045 40.4553V40.8531C51.0297 41.3529 50.9549 41.8561 50.8767 42.3593C49.8193 49.0301 42.4243 52.8517 36.3315 49.8903C34.2245 48.8759 32.5285 47.1704 31.5257 45.0579C30.523 42.9453 30.2739 40.5531 30.8201 38.2793C30.8738 38.1517 30.8873 38.0107 30.8587 37.8752C30.8302 37.7397 30.7609 37.6162 30.6603 37.5211C24.9936 31.8544 19.3394 26.1878 13.6977 20.5211C13.607 20.4173 13.4869 20.3435 13.3533 20.3095C13.2197 20.2755 13.0789 20.2829 12.9497 20.3307C11.6955 20.6527 10.3911 20.7301 9.10766 20.5585C7.01301 20.2918 5.05276 19.3816 3.49738 17.9535C1.942 16.5254 0.86817 14.6498 0.424056 12.5855C0.284656 11.9463 0.206456 11.2901 0.0976562 10.6441ZM10.4439 6.12549C8.57386 5.96909 6.11906 7.55349 6.07826 10.3959C6.07375 11.5492 6.52758 12.6571 7.33991 13.4758C8.15224 14.2945 9.25654 14.757 10.4099 14.7615C11.5632 14.766 12.671 14.3122 13.4898 13.4998C14.3085 12.6875 14.7709 11.5832 14.7755 10.4299C14.7483 7.66909 12.4023 5.98949 10.4439 6.12549ZM40.7583 44.9943C42.6793 45.1337 45.0695 43.5221 45.1171 40.7103C45.1202 39.557 44.6651 38.4496 43.8518 37.6319C43.0385 36.8141 41.9337 36.353 40.7804 36.3498C39.627 36.3466 38.5197 36.8018 37.7019 37.6151C36.8842 38.4283 36.423 39.5332 36.4199 40.6865C36.4437 43.3929 38.7591 45.1235 40.7583 44.9909V44.9943Z" fill="white"/>
<path d="M0.0980187 40.7647C0.210219 40.1017 0.298619 39.4353 0.438019 38.7757C0.874382 36.8324 1.88646 35.0659 3.34214 33.7067C4.79782 32.3474 6.62948 31.4586 8.59802 31.1563C9.94238 30.9347 11.3186 31.0043 12.6338 31.3603C12.7723 31.41 12.9228 31.4151 13.0643 31.3748C13.2058 31.3346 13.3311 31.251 13.4226 31.1359C14.3236 30.2077 15.2416 29.2965 16.1426 28.3819C16.2684 28.2561 16.401 28.1405 16.4996 28.0419L23.4832 34.9337C23.1432 35.2023 22.8236 35.4437 22.5312 35.7259C21.7254 36.5147 20.9502 37.3375 20.1274 38.1059C20.0007 38.22 19.9096 38.3683 19.865 38.5329C19.8204 38.6975 19.8241 38.8715 19.8758 39.0341C20.1697 40.4157 20.1573 41.8449 19.8395 43.2211C19.5217 44.5974 18.9062 45.8874 18.0364 47.0003C17.1921 48.1355 16.1084 49.0712 14.8622 49.741C13.616 50.4108 12.2377 50.7984 10.825 50.8763C9.2409 50.9982 7.65082 50.7345 6.19082 50.1079C6.34042 49.9413 6.44922 49.8087 6.57162 49.6863C7.83642 48.4215 9.12842 47.1771 10.366 45.8851C10.6759 45.5634 10.9194 45.1838 11.0825 44.768C11.2457 44.3522 11.3254 43.9083 11.317 43.4618C11.3086 43.0152 11.2124 42.5746 11.0338 42.1652C10.8551 41.7558 10.5976 41.3856 10.2759 41.0758C9.95422 40.7659 9.57464 40.5224 9.15884 40.3593C8.74305 40.1961 8.29919 40.1164 7.85261 40.1248C7.40602 40.1332 6.96546 40.2294 6.55607 40.408C6.14668 40.5867 5.77649 40.8442 5.46662 41.1659C4.19162 42.4477 2.90982 43.7193 1.62802 44.9977C1.50562 45.1201 1.37302 45.2357 1.19962 45.3955C0.66701 44.3438 0.333855 43.2025 0.217019 42.0295C0.179619 41.6725 0.121819 41.3155 0.0742188 40.9585L0.0980187 40.7647Z" fill="white"/>
<path d="M51.0974 10.3449C51.0192 10.8447 50.9342 11.3445 50.8628 11.8477C50.2712 15.8801 46.7114 19.3855 42.645 19.9533C41.2858 20.1702 39.8963 20.1019 38.565 19.7527C38.4269 19.7021 38.2765 19.6962 38.1349 19.7358C37.9933 19.7755 37.8678 19.8587 37.7762 19.9737C36.8752 20.8985 35.9572 21.8097 35.0562 22.7243C34.9304 22.8535 34.7978 22.9725 34.5972 23.1595L27.668 16.3255C28.8342 15.1729 29.878 14.1121 30.9592 13.0853C31.1145 12.9559 31.2292 12.7844 31.2896 12.5914C31.3499 12.3984 31.3532 12.1921 31.2992 11.9973C31.0415 10.6987 31.048 9.36155 31.3182 8.06554C31.5884 6.76953 32.1169 5.54121 32.872 4.45383C33.6272 3.36645 34.5936 2.44229 35.7137 1.73645C36.8337 1.03061 38.0844 0.557546 39.3912 0.345479C41.2236 0.0210085 43.1105 0.225031 44.8312 0.933679C44.906 0.964279 44.9774 1.00508 45.093 1.06288C44.9808 1.18868 44.8924 1.29748 44.7938 1.40288C43.4848 2.72548 42.1588 4.03788 40.8362 5.36728C40.3752 5.79183 40.0463 6.34023 39.889 6.94684C39.7316 7.55345 39.7523 8.19257 39.9488 8.78768C40.107 9.3792 40.4312 9.9131 40.8831 10.3264C41.3349 10.7396 41.8955 11.015 42.4988 11.1201C43.0173 11.2522 43.5611 11.2495 44.0783 11.112C44.5955 10.9745 45.0689 10.7069 45.4534 10.3347C46.8304 9.01548 48.1734 7.65888 49.5334 6.30908C49.6619 6.14562 49.7746 5.97029 49.87 5.78548L50.1352 5.86708C50.3766 6.69328 50.652 7.51268 50.8458 8.34908C50.9852 8.97128 51.0192 9.62068 51.0974 10.2565V10.3449Z" fill="white"/>
</g>
<defs>
<clipPath id="clip0_67_434">
<rect width="51" height="51" fill="white" transform="translate(0 0.00549316)"/>
</clipPath>
</defs>
</svg>
