<svg width="61" height="62" viewBox="0 0 61 62" fill="none" xmlns="http://www.w3.org/2000/svg">
<path d="M0.117188 40.2627V10.7834C0.190387 10.4581 0.263587 10.1327 0.340854 9.80739C0.586495 8.77762 1.17282 7.86104 2.00472 7.20629C2.83663 6.55154 3.86533 6.19703 4.92399 6.20026C7.32332 6.20026 9.72265 6.20026 12.1179 6.20026H55.9932C57.2123 6.16468 58.4005 6.58687 59.3238 7.38366C60.495 8.41253 60.9505 9.75453 60.9505 11.2592C60.9505 13.5772 60.9505 15.8952 60.9505 18.2132C60.9505 25.3868 60.9505 32.5604 60.9505 39.734C60.9505 42.6579 59.0269 44.7441 56.2941 44.7441C39.1328 44.7441 21.9728 44.7441 4.81419 44.7441C3.77516 44.7453 2.76656 44.3934 1.95377 43.7462C1.14099 43.0989 0.572261 42.1947 0.340854 41.1817C0.255454 40.8808 0.190387 40.5758 0.117188 40.2627Z" fill="white"/>
<path d="M43.259 55.0654H18.5703C18.6435 54.9259 18.7236 54.7902 18.8102 54.6587C20.3352 52.662 21.8724 50.6693 23.3893 48.6644C23.5035 48.4941 23.6607 48.357 23.845 48.267C24.0292 48.177 24.234 48.1374 24.4385 48.152C28.7776 48.152 33.1168 48.152 37.4518 48.1724C37.7539 48.1685 38.0455 48.2822 38.2652 48.4896C39.9203 50.592 41.5185 52.7189 43.1452 54.8458C43.1914 54.9144 43.2296 54.9881 43.259 55.0654Z" fill="white"/>
</svg>
