<svg width="78" height="80" viewBox="0 0 78 80" fill="none" xmlns="http://www.w3.org/2000/svg">
<g clip-path="url(#clip0_67_376)">
<path d="M0.151025 13.824C0.733425 11.9093 2.04383 11.3173 3.93663 11.3227C19.9734 11.3653 36.0154 11.3227 52.0574 11.3227C52.3642 11.3227 52.6658 11.3227 52.9726 11.3227C53.7046 11.3334 54.4041 11.6343 54.9246 12.1622C55.4451 12.6901 55.7463 13.4041 55.765 14.1547C55.7962 15.0347 55.765 15.92 55.765 16.8213C55.765 29.3707 55.7286 41.92 55.8014 54.4693C55.8014 57.248 54.2414 58.2933 52.0418 58.272C43.7218 58.1973 35.4434 58.272 27.1442 58.2293C26.2064 58.2162 25.2832 58.469 24.4766 58.96C19.1484 62.1351 13.8097 65.2942 8.46063 68.4373C8.21103 68.5867 7.94063 68.7253 7.57143 68.928C7.54543 68.5173 7.51423 68.2453 7.51423 67.968C7.51423 65.7867 7.51423 63.6053 7.51423 61.424C7.51423 59.3653 6.40663 58.224 4.39423 58.224C4.24343 58.224 4.08743 58.224 3.93663 58.224C2.05423 58.3893 0.733425 57.6587 0.140625 55.7493L0.151025 13.824Z" fill="#2056A2"/>
<path d="M78.1489 54.528C77.8644 54.4377 77.5864 54.3272 77.3169 54.1973C72.2157 51.1893 67.1249 48.1653 62.0185 45.1733C61.8153 45.0803 61.6465 44.9228 61.537 44.7241C61.4274 44.5254 61.383 44.2959 61.4101 44.0693C61.4101 37.8898 61.4101 31.7066 61.4101 25.52C61.383 25.2934 61.4274 25.0639 61.537 24.8652C61.6465 24.6665 61.8153 24.509 62.0185 24.416C67.1457 21.408 72.2573 18.3733 77.3793 15.3493C77.6267 15.2307 77.8843 15.136 78.1489 15.0667V54.528Z" fill="#2056A2"/>
</g>
<defs>
<clipPath id="clip0_67_376">
<rect width="78" height="80" fill="white"/>
</clipPath>
</defs>
</svg>
