<svg width="77" height="77" viewBox="0 0 77 77" fill="none" xmlns="http://www.w3.org/2000/svg">
<g clip-path="url(#clip0_67_372)">
<path d="M0.148438 16.0622V15.4616C0.266504 14.7018 0.374304 13.9216 0.497504 13.1824C2.10937 3.15696 13.1101 -2.60777 22.3244 1.75043C25.535 3.2525 28.1302 5.81439 29.6737 9.00519C31.2173 12.196 31.6148 15.821 30.7996 19.2705C30.712 19.4731 30.6872 19.6974 30.7284 19.9142C30.7695 20.1311 30.8748 20.3307 31.0306 20.4871C39.5861 29.0426 48.1211 37.5982 56.6356 46.1538C56.7729 46.3115 56.9552 46.4236 57.1579 46.475C57.3606 46.5263 57.5742 46.5146 57.7701 46.4412C59.6636 45.955 61.6331 45.8382 63.5708 46.0973C66.7314 46.5019 69.6887 47.877 72.035 50.033C74.3814 52.189 76.0011 55.0197 76.671 58.135C76.8764 59.1052 76.9996 60.0908 77.1587 61.0712V61.6718C77.0458 62.4264 76.9328 63.1862 76.8148 63.9459C75.2183 74.0175 64.0533 79.7874 54.8544 75.3162C51.6733 73.7846 49.1126 71.2098 47.5986 68.0202C46.0847 64.8307 45.7087 61.2189 46.5332 57.7859C46.6143 57.5932 46.6347 57.3804 46.5916 57.1758C46.5485 56.9712 46.4439 56.7847 46.292 56.6412C37.7364 48.0856 29.1997 39.53 20.6818 30.9745C20.5448 30.8178 20.3635 30.7063 20.1618 30.655C19.9602 30.6037 19.7476 30.6148 19.5524 30.687C17.6589 31.1733 15.6895 31.29 13.7518 31.031C10.5893 30.6283 7.62967 29.2541 5.28135 27.098C2.93304 24.9418 1.31176 22.11 0.641237 18.9933C0.430771 18.0282 0.312704 17.0375 0.148438 16.0622ZM15.7692 9.23996C12.9458 9.00383 9.23957 11.396 9.17797 15.6874C9.17116 17.4287 9.85636 19.1014 11.0828 20.3375C12.3093 21.5736 13.9765 22.2718 15.7178 22.2786C17.4591 22.2854 19.1318 21.6002 20.3679 20.3738C21.604 19.1473 22.3022 17.48 22.309 15.7388C22.268 11.5705 18.726 9.03463 15.7692 9.23996ZM61.538 67.9242C64.4383 68.1347 68.047 65.7015 68.1189 61.4562C68.1237 59.7149 67.4365 58.0431 66.2086 56.8084C64.9807 55.5738 63.3126 54.8775 61.5713 54.8727C59.83 54.868 58.1582 55.5551 56.9235 56.783C55.6889 58.0109 54.9926 59.679 54.9878 61.4203C55.0238 65.5064 58.5196 68.1193 61.538 67.9191V67.9242Z" fill="#2056A2"/>
<path d="M0.149215 61.5384C0.318615 60.5374 0.452081 59.5313 0.662548 58.5354C1.32137 55.6015 2.84941 52.9344 5.04721 50.8822C7.245 48.83 10.0104 47.4881 12.9825 47.0316C15.0123 46.6971 17.0902 46.8021 19.0758 47.3396C19.2848 47.4147 19.5121 47.4224 19.7257 47.3616C19.9393 47.3008 20.1285 47.1746 20.2667 47.0008C21.6271 45.5994 23.0131 44.2237 24.3734 42.8428C24.5633 42.6529 24.7635 42.4783 24.9124 42.3295L35.4563 52.7347C34.9429 53.1403 34.4604 53.5047 34.0189 53.9308C32.8023 55.1217 31.6319 56.364 30.3897 57.5241C30.1984 57.6965 30.0608 57.9204 29.9935 58.1689C29.9261 58.4175 29.9318 58.6801 30.0098 58.9255C30.4535 61.0115 30.4347 63.1693 29.9549 65.2472C29.4751 67.3251 28.5459 69.2727 27.2327 70.9529C25.9579 72.6669 24.3217 74.0796 22.4402 75.0909C20.5587 76.1022 18.4777 76.6874 16.3449 76.8049C13.9532 76.989 11.5525 76.5909 9.34815 75.6448C9.57401 75.3933 9.73828 75.1931 9.92308 75.0083C11.8327 73.0987 13.7833 71.2199 15.6519 69.2692C16.1197 68.7835 16.4873 68.2104 16.7337 67.5826C16.98 66.9549 17.1003 66.2847 17.0877 65.6105C17.0751 64.9362 16.9297 64.2711 16.66 63.653C16.3903 63.0349 16.0016 62.4759 15.5158 62.0081C15.0301 61.5403 14.4571 61.1727 13.8293 60.9263C13.2015 60.68 12.5314 60.5597 11.8571 60.5723C11.1829 60.5849 10.5177 60.7302 9.89961 60.9999C9.28151 61.2696 8.72259 61.6584 8.25475 62.1441C6.32975 64.0794 4.39448 65.9993 2.45921 67.9294C2.27441 68.1142 2.07421 68.2887 1.81241 68.53C1.00828 66.9422 0.505281 65.2191 0.328881 63.448C0.272415 62.909 0.185148 62.37 0.113281 61.831L0.149215 61.5384Z" fill="#2056A2"/>
<path d="M77.1472 15.6105C77.0292 16.3651 76.9008 17.1197 76.793 17.8794C75.8998 23.9676 70.5252 29.26 64.3858 30.1173C62.3337 30.4449 60.2358 30.3417 58.2258 29.8144C58.0174 29.738 57.7902 29.7291 57.5764 29.789C57.3627 29.8489 57.1732 29.9745 57.0348 30.1481C55.6745 31.5444 54.2885 32.9201 52.9282 34.301C52.7382 34.496 52.538 34.6757 52.2352 34.958L41.7734 24.64C43.5342 22.8998 45.1101 21.2982 46.7425 19.748C46.9771 19.5526 47.1503 19.2937 47.2413 19.0023C47.3324 18.7109 47.3374 18.3995 47.2558 18.1053C46.8668 16.1447 46.8766 14.1259 47.2846 12.1692C47.6926 10.2124 48.4904 8.35791 49.6306 6.71618C50.7707 5.07445 52.2298 3.67914 53.9208 2.61346C55.6119 1.54778 57.5002 0.833553 59.4732 0.513372C62.2397 0.0234861 65.0886 0.331519 67.6865 1.40144C67.7994 1.44764 67.9072 1.50924 68.0818 1.59651C67.9124 1.78644 67.7789 1.95071 67.63 2.10984C65.6537 4.10671 63.6517 6.08817 61.6548 8.09531C60.9589 8.7363 60.4623 9.56428 60.2247 10.4801C59.9871 11.396 60.0185 12.3609 60.315 13.2594C60.554 14.1525 61.0435 14.9586 61.7256 15.5826C62.4078 16.2065 63.2542 16.6223 64.165 16.7809C64.948 16.9804 65.769 16.9762 66.5498 16.7687C67.3307 16.5611 68.0454 16.1571 68.6259 15.5951C70.7049 13.6034 72.7326 11.5552 74.7859 9.51724C74.98 9.27045 75.1502 9.00574 75.2941 8.72671L75.6945 8.84991C76.059 10.0973 76.4748 11.3344 76.7674 12.5972C76.9778 13.5366 77.0292 14.5171 77.1472 15.477V15.6105Z" fill="#2056A2"/>
</g>
<defs>
<clipPath id="clip0_67_372">
<rect width="77" height="77" fill="white"/>
</clipPath>
</defs>
</svg>
