<svg width="75" height="75" viewBox="0 0 75 75" fill="none" xmlns="http://www.w3.org/2000/svg">
<path d="M0.144531 49.5V13.255C0.234531 12.855 0.324531 12.455 0.419531 12.055C0.721549 10.7889 1.44243 9.66193 2.46527 8.85691C3.48811 8.05189 4.7529 7.61602 6.05453 7.61999C9.00453 7.61999 11.9545 7.61999 14.8995 7.61999H68.8445C70.3434 7.57625 71.8043 8.09532 72.9395 9.07499C74.3795 10.34 74.9395 11.99 74.9395 13.84C74.9395 16.69 74.9395 19.54 74.9395 22.39C74.9395 31.21 74.9395 40.03 74.9395 48.85C74.9395 52.445 72.5745 55.01 69.2145 55.01C48.1145 55.01 27.0162 55.01 5.91953 55.01C4.64204 55.0115 3.40195 54.5788 2.40263 53.783C1.4033 52.9872 0.704048 51.8754 0.419531 50.63C0.314531 50.26 0.234531 49.885 0.144531 49.5Z" fill="#2056A2"/>
<path d="M53.1831 67.6999H22.8281C22.9182 67.5285 23.0166 67.3617 23.1231 67.1999C24.9981 64.7449 26.8881 62.295 28.7531 59.83C28.8935 59.6205 29.0868 59.452 29.3133 59.3413C29.5399 59.2307 29.7917 59.1819 30.0431 59.1999C35.3781 59.1999 40.7131 59.1999 46.0431 59.2249C46.4145 59.2202 46.7731 59.36 47.0431 59.615C49.0781 62.2 51.0431 64.815 53.0431 67.43C53.0999 67.5143 53.1469 67.6049 53.1831 67.6999Z" fill="#2056A2"/>
</svg>
