<svg width="78" height="78" viewBox="0 0 78 78" fill="none" xmlns="http://www.w3.org/2000/svg">
<path d="M39.2297 0C40.2697 0.1612 41.2733 0.2704 42.2769 0.52C45.2137 1.19789 47.8736 2.75602 49.9012 4.98613C51.9287 7.21625 53.2273 10.0121 53.6233 13C53.7073 13.6519 53.7525 14.3083 53.7585 14.9656C53.7585 22.9424 53.6961 30.9244 53.7585 38.8856C53.8417 46.3892 47.9865 52.4732 41.5489 53.5548C37.6678 54.237 33.6743 53.3571 30.4393 51.1069C27.2043 48.8568 24.9902 45.4188 24.2797 41.5428C24.1567 40.8213 24.0959 40.0907 24.0977 39.3588C24.0977 31.1289 24.0977 22.8956 24.0977 14.6588C24.1624 11.2282 25.4154 7.92641 27.643 5.31666C29.8705 2.70691 32.9347 0.950954 36.3125 0.3484C37.0821 0.2236 37.8725 0.1144 38.6213 0H39.2297Z" fill="#2056A2"/>
<path d="M38.8511 77.7764H24.4835C23.1471 77.7764 22.0343 77.3448 21.3895 76.1072C21.1741 75.6742 21.0725 75.1935 21.0943 74.7104C21.116 74.2273 21.2603 73.7577 21.5136 73.3457C21.7669 72.9338 22.1209 72.5931 22.5422 72.3557C22.9635 72.1183 23.4383 71.992 23.9219 71.9888C27.6451 71.9888 31.3683 71.9888 35.0967 71.9888C36.0951 71.9888 36.1003 71.9888 36.1003 70.9488C36.1003 69.3888 36.1003 67.8288 36.1003 66.3104C36.1003 65.7904 35.9339 65.5252 35.3827 65.4576C28.5031 64.6048 22.9027 61.4068 18.4203 56.1756C14.9337 52.2428 12.7852 47.305 12.2843 42.0732C12.0035 38.9532 12.0919 35.8332 12.1075 32.7392C12.1075 31.2884 13.5791 30.0092 14.9883 30.0248C15.7566 30.0642 16.4813 30.3937 17.016 30.9468C17.5507 31.4998 17.8556 32.2352 17.8691 33.0044C17.8691 35.0844 17.8691 37.1644 17.8691 39.2444C17.9353 44.2625 19.7891 49.0925 23.0974 52.8663C26.4057 56.64 30.9515 59.1101 35.9178 59.8325C40.8841 60.555 45.9452 59.4824 50.1916 56.8077C54.4379 54.1329 57.5911 50.0313 59.0843 45.24C59.6772 43.3573 59.9788 41.395 59.9787 39.4212C59.9787 37.3689 59.9787 35.3167 59.9787 33.2644C59.9787 31.486 61.2475 30.0768 62.8491 30.0456C64.4507 30.0144 65.7663 31.46 65.7715 33.28V38.7348C65.7715 46.6908 62.7971 53.352 56.9731 58.7496C52.9937 62.4888 47.9155 64.8465 42.4911 65.4732C42.384 65.4699 42.2775 65.4906 42.1794 65.5338C42.0813 65.577 41.9942 65.6416 41.9244 65.7229C41.8545 65.8042 41.8038 65.9001 41.7759 66.0035C41.748 66.107 41.7436 66.2154 41.7631 66.3208C41.7631 67.9432 41.7631 69.5604 41.7631 71.1828C41.7631 71.8328 42.0283 71.994 42.6315 71.994C46.3547 71.994 50.0779 71.994 53.8011 71.994C54.4263 71.977 55.0402 72.1628 55.551 72.5237C56.0619 72.8845 56.4422 73.401 56.6351 73.996C56.8451 74.5867 56.8421 75.2322 56.6265 75.821C56.411 76.4097 55.9965 76.9045 55.4547 77.22C54.7897 77.5729 54.0494 77.7602 53.2967 77.766C48.4763 77.8024 43.6819 77.7764 38.8511 77.7764Z" fill="#2056A2"/>
</svg>
